<mxfile host="app.diagrams.net" agent="Mozilla/5.0 (Windows NT 10.0; Win64; x64) AppleWebKit/537.36 (KHTML, like Gecko) Chrome/134.0.0.0 Safari/537.36 Edg/134.0.0.0" version="26.1.3">
  <diagram id="C5RBs43oDa-KdzZeNtuy" name="Page-1">
    <mxGraphModel dx="1933" dy="609" grid="1" gridSize="10" guides="1" tooltips="1" connect="1" arrows="1" fold="1" page="1" pageScale="1" pageWidth="827" pageHeight="1169" math="0" shadow="0">
      <root>
        <mxCell id="WIyWlLk6GJQsqaUBKTNV-0" />
        <mxCell id="WIyWlLk6GJQsqaUBKTNV-1" parent="WIyWlLk6GJQsqaUBKTNV-0" />
        <mxCell id="4BFlr_aGlpS0vmlmlXQm-0" value="" style="swimlane;startSize=0;" vertex="1" parent="WIyWlLk6GJQsqaUBKTNV-1">
          <mxGeometry x="60" y="20" width="750" height="660" as="geometry" />
        </mxCell>
        <mxCell id="4BFlr_aGlpS0vmlmlXQm-17" value="Navegar&lt;div&gt;Produto&lt;/div&gt;" style="ellipse;whiteSpace=wrap;html=1;" vertex="1" parent="4BFlr_aGlpS0vmlmlXQm-0">
          <mxGeometry x="110" y="70" width="140" height="70" as="geometry" />
        </mxCell>
        <mxCell id="4BFlr_aGlpS0vmlmlXQm-18" value="Pesquisa" style="ellipse;whiteSpace=wrap;html=1;" vertex="1" parent="4BFlr_aGlpS0vmlmlXQm-0">
          <mxGeometry x="40" y="170" width="140" height="70" as="geometry" />
        </mxCell>
        <mxCell id="4BFlr_aGlpS0vmlmlXQm-24" value="Carrinho | " style="ellipse;whiteSpace=wrap;html=1;" vertex="1" parent="4BFlr_aGlpS0vmlmlXQm-0">
          <mxGeometry x="310" y="50" width="140" height="70" as="geometry" />
        </mxCell>
        <mxCell id="4BFlr_aGlpS0vmlmlXQm-25" value="Criar&lt;div&gt;Conta&lt;/div&gt;" style="ellipse;whiteSpace=wrap;html=1;" vertex="1" parent="4BFlr_aGlpS0vmlmlXQm-0">
          <mxGeometry x="50" y="400" width="140" height="70" as="geometry" />
        </mxCell>
        <mxCell id="4BFlr_aGlpS0vmlmlXQm-26" value="Processar&lt;div&gt;Pedidos&lt;/div&gt;" style="ellipse;whiteSpace=wrap;html=1;" vertex="1" parent="4BFlr_aGlpS0vmlmlXQm-0">
          <mxGeometry x="580" y="285" width="140" height="70" as="geometry" />
        </mxCell>
        <mxCell id="4BFlr_aGlpS0vmlmlXQm-47" value="Comércio eletrônico" style="ellipse;whiteSpace=wrap;html=1;" vertex="1" parent="4BFlr_aGlpS0vmlmlXQm-0">
          <mxGeometry x="290" y="270" width="180" height="100" as="geometry" />
        </mxCell>
        <mxCell id="4BFlr_aGlpS0vmlmlXQm-48" value="Status&lt;div&gt;Entrega&lt;/div&gt;" style="ellipse;whiteSpace=wrap;html=1;" vertex="1" parent="4BFlr_aGlpS0vmlmlXQm-0">
          <mxGeometry x="530" y="80" width="140" height="70" as="geometry" />
        </mxCell>
        <mxCell id="4BFlr_aGlpS0vmlmlXQm-54" value="Pedido" style="ellipse;whiteSpace=wrap;html=1;" vertex="1" parent="4BFlr_aGlpS0vmlmlXQm-0">
          <mxGeometry x="90" y="520" width="140" height="70" as="geometry" />
        </mxCell>
        <mxCell id="4BFlr_aGlpS0vmlmlXQm-57" value="&lt;font&gt;Efetuar&lt;/font&gt;&lt;div&gt;Pedido&lt;/div&gt;" style="ellipse;whiteSpace=wrap;html=1;" vertex="1" parent="4BFlr_aGlpS0vmlmlXQm-0">
          <mxGeometry x="310" y="470" width="140" height="70" as="geometry" />
        </mxCell>
        <mxCell id="4BFlr_aGlpS0vmlmlXQm-58" value="&lt;font&gt;Processar&lt;/font&gt;&lt;div&gt;Pedido&lt;/div&gt;" style="ellipse;whiteSpace=wrap;html=1;" vertex="1" parent="4BFlr_aGlpS0vmlmlXQm-0">
          <mxGeometry x="500" y="570" width="140" height="70" as="geometry" />
        </mxCell>
        <mxCell id="4BFlr_aGlpS0vmlmlXQm-59" value="Analisar&lt;div&gt;Vendas&lt;/div&gt;" style="ellipse;whiteSpace=wrap;html=1;" vertex="1" parent="4BFlr_aGlpS0vmlmlXQm-0">
          <mxGeometry x="590" y="460" width="140" height="70" as="geometry" />
        </mxCell>
        <mxCell id="4BFlr_aGlpS0vmlmlXQm-76" value="&amp;lt;&amp;lt;include&amp;gt;&amp;gt;" style="html=1;verticalAlign=bottom;labelBackgroundColor=none;endArrow=open;endFill=0;dashed=1;rounded=0;entryX=0.5;entryY=0;entryDx=0;entryDy=0;exitX=0.5;exitY=1;exitDx=0;exitDy=0;" edge="1" parent="4BFlr_aGlpS0vmlmlXQm-0" source="4BFlr_aGlpS0vmlmlXQm-47" target="4BFlr_aGlpS0vmlmlXQm-57">
          <mxGeometry width="160" relative="1" as="geometry">
            <mxPoint x="270" y="380" as="sourcePoint" />
            <mxPoint x="430" y="380" as="targetPoint" />
          </mxGeometry>
        </mxCell>
        <mxCell id="4BFlr_aGlpS0vmlmlXQm-77" value="Gerenciar&lt;div&gt;&lt;span style=&quot;background-color: transparent; color: light-dark(rgb(0, 0, 0), rgb(255, 255, 255));&quot;&gt;Pedidos&lt;/span&gt;&lt;/div&gt;" style="ellipse;whiteSpace=wrap;html=1;" vertex="1" parent="4BFlr_aGlpS0vmlmlXQm-0">
          <mxGeometry x="600" y="170" width="140" height="70" as="geometry" />
        </mxCell>
        <mxCell id="4BFlr_aGlpS0vmlmlXQm-80" value="" style="endArrow=none;html=1;rounded=0;entryX=0.5;entryY=1;entryDx=0;entryDy=0;exitX=0.5;exitY=0;exitDx=0;exitDy=0;" edge="1" parent="4BFlr_aGlpS0vmlmlXQm-0" source="4BFlr_aGlpS0vmlmlXQm-47" target="4BFlr_aGlpS0vmlmlXQm-24">
          <mxGeometry width="50" height="50" relative="1" as="geometry">
            <mxPoint x="330" y="400" as="sourcePoint" />
            <mxPoint x="380" y="350" as="targetPoint" />
          </mxGeometry>
        </mxCell>
        <mxCell id="4BFlr_aGlpS0vmlmlXQm-81" value="" style="endArrow=none;html=1;rounded=0;entryX=0.278;entryY=0.07;entryDx=0;entryDy=0;entryPerimeter=0;exitX=0.929;exitY=0.714;exitDx=0;exitDy=0;exitPerimeter=0;" edge="1" parent="4BFlr_aGlpS0vmlmlXQm-0" source="4BFlr_aGlpS0vmlmlXQm-17" target="4BFlr_aGlpS0vmlmlXQm-47">
          <mxGeometry width="50" height="50" relative="1" as="geometry">
            <mxPoint x="330" y="400" as="sourcePoint" />
            <mxPoint x="380" y="350" as="targetPoint" />
          </mxGeometry>
        </mxCell>
        <mxCell id="4BFlr_aGlpS0vmlmlXQm-82" value="" style="endArrow=none;html=1;rounded=0;exitX=0.979;exitY=0.686;exitDx=0;exitDy=0;exitPerimeter=0;entryX=0.056;entryY=0.3;entryDx=0;entryDy=0;entryPerimeter=0;" edge="1" parent="4BFlr_aGlpS0vmlmlXQm-0" source="4BFlr_aGlpS0vmlmlXQm-18" target="4BFlr_aGlpS0vmlmlXQm-47">
          <mxGeometry width="50" height="50" relative="1" as="geometry">
            <mxPoint x="330" y="400" as="sourcePoint" />
            <mxPoint x="380" y="350" as="targetPoint" />
          </mxGeometry>
        </mxCell>
        <mxCell id="4BFlr_aGlpS0vmlmlXQm-83" value="" style="endArrow=none;html=1;rounded=0;exitX=0.95;exitY=0.214;exitDx=0;exitDy=0;exitPerimeter=0;entryX=0.05;entryY=0.71;entryDx=0;entryDy=0;entryPerimeter=0;" edge="1" parent="4BFlr_aGlpS0vmlmlXQm-0" source="4BFlr_aGlpS0vmlmlXQm-25" target="4BFlr_aGlpS0vmlmlXQm-47">
          <mxGeometry width="50" height="50" relative="1" as="geometry">
            <mxPoint x="330" y="400" as="sourcePoint" />
            <mxPoint x="380" y="350" as="targetPoint" />
          </mxGeometry>
        </mxCell>
        <mxCell id="4BFlr_aGlpS0vmlmlXQm-84" value="" style="endArrow=none;html=1;rounded=0;exitX=0.729;exitY=0.029;exitDx=0;exitDy=0;exitPerimeter=0;entryX=0.2;entryY=0.95;entryDx=0;entryDy=0;entryPerimeter=0;" edge="1" parent="4BFlr_aGlpS0vmlmlXQm-0" source="4BFlr_aGlpS0vmlmlXQm-54" target="4BFlr_aGlpS0vmlmlXQm-47">
          <mxGeometry width="50" height="50" relative="1" as="geometry">
            <mxPoint x="330" y="400" as="sourcePoint" />
            <mxPoint x="380" y="350" as="targetPoint" />
          </mxGeometry>
        </mxCell>
        <mxCell id="4BFlr_aGlpS0vmlmlXQm-85" value="" style="endArrow=none;html=1;rounded=0;entryX=0.064;entryY=0.786;entryDx=0;entryDy=0;entryPerimeter=0;exitX=0.789;exitY=0.06;exitDx=0;exitDy=0;exitPerimeter=0;" edge="1" parent="4BFlr_aGlpS0vmlmlXQm-0" source="4BFlr_aGlpS0vmlmlXQm-47" target="4BFlr_aGlpS0vmlmlXQm-48">
          <mxGeometry width="50" height="50" relative="1" as="geometry">
            <mxPoint x="330" y="400" as="sourcePoint" />
            <mxPoint x="380" y="350" as="targetPoint" />
          </mxGeometry>
        </mxCell>
        <mxCell id="4BFlr_aGlpS0vmlmlXQm-86" value="" style="endArrow=none;html=1;rounded=0;entryX=0;entryY=0.5;entryDx=0;entryDy=0;exitX=0.956;exitY=0.25;exitDx=0;exitDy=0;exitPerimeter=0;" edge="1" parent="4BFlr_aGlpS0vmlmlXQm-0" source="4BFlr_aGlpS0vmlmlXQm-47" target="4BFlr_aGlpS0vmlmlXQm-77">
          <mxGeometry width="50" height="50" relative="1" as="geometry">
            <mxPoint x="330" y="400" as="sourcePoint" />
            <mxPoint x="380" y="350" as="targetPoint" />
          </mxGeometry>
        </mxCell>
        <mxCell id="4BFlr_aGlpS0vmlmlXQm-87" value="" style="endArrow=none;html=1;rounded=0;entryX=0;entryY=0.5;entryDx=0;entryDy=0;exitX=1;exitY=0.5;exitDx=0;exitDy=0;" edge="1" parent="4BFlr_aGlpS0vmlmlXQm-0" source="4BFlr_aGlpS0vmlmlXQm-47" target="4BFlr_aGlpS0vmlmlXQm-26">
          <mxGeometry width="50" height="50" relative="1" as="geometry">
            <mxPoint x="330" y="400" as="sourcePoint" />
            <mxPoint x="380" y="350" as="targetPoint" />
          </mxGeometry>
        </mxCell>
        <mxCell id="4BFlr_aGlpS0vmlmlXQm-88" value="" style="endArrow=none;html=1;rounded=0;entryX=0;entryY=0;entryDx=0;entryDy=0;exitX=1;exitY=1;exitDx=0;exitDy=0;" edge="1" parent="4BFlr_aGlpS0vmlmlXQm-0" source="4BFlr_aGlpS0vmlmlXQm-47" target="4BFlr_aGlpS0vmlmlXQm-59">
          <mxGeometry width="50" height="50" relative="1" as="geometry">
            <mxPoint x="330" y="400" as="sourcePoint" />
            <mxPoint x="380" y="350" as="targetPoint" />
          </mxGeometry>
        </mxCell>
        <mxCell id="4BFlr_aGlpS0vmlmlXQm-89" value="" style="endArrow=none;html=1;rounded=0;entryX=0.414;entryY=-0.029;entryDx=0;entryDy=0;entryPerimeter=0;exitX=0.706;exitY=0.98;exitDx=0;exitDy=0;exitPerimeter=0;" edge="1" parent="4BFlr_aGlpS0vmlmlXQm-0" source="4BFlr_aGlpS0vmlmlXQm-47" target="4BFlr_aGlpS0vmlmlXQm-58">
          <mxGeometry width="50" height="50" relative="1" as="geometry">
            <mxPoint x="330" y="400" as="sourcePoint" />
            <mxPoint x="380" y="350" as="targetPoint" />
          </mxGeometry>
        </mxCell>
        <mxCell id="4BFlr_aGlpS0vmlmlXQm-6" value="Usuário" style="shape=umlActor;verticalLabelPosition=bottom;verticalAlign=top;html=1;outlineConnect=0;" vertex="1" parent="WIyWlLk6GJQsqaUBKTNV-1">
          <mxGeometry x="-50" y="540" width="30" height="60" as="geometry" />
        </mxCell>
        <mxCell id="4BFlr_aGlpS0vmlmlXQm-50" value="Administrador" style="shape=umlActor;verticalLabelPosition=bottom;verticalAlign=top;html=1;outlineConnect=0;" vertex="1" parent="WIyWlLk6GJQsqaUBKTNV-1">
          <mxGeometry x="880" y="280" width="30" height="60" as="geometry" />
        </mxCell>
        <mxCell id="4BFlr_aGlpS0vmlmlXQm-55" value="Sistema de pagamento |" style="shape=umlActor;verticalLabelPosition=bottom;verticalAlign=top;html=1;outlineConnect=0;" vertex="1" parent="WIyWlLk6GJQsqaUBKTNV-1">
          <mxGeometry x="890" y="570" width="30" height="60" as="geometry" />
        </mxCell>
        <mxCell id="4BFlr_aGlpS0vmlmlXQm-5" value="Visitante" style="shape=umlActor;verticalLabelPosition=bottom;verticalAlign=top;html=1;outlineConnect=0;" vertex="1" parent="WIyWlLk6GJQsqaUBKTNV-1">
          <mxGeometry x="-50" y="300" width="30" height="60" as="geometry" />
        </mxCell>
        <mxCell id="4BFlr_aGlpS0vmlmlXQm-79" value="&amp;lt;&amp;lt;include&amp;gt;&amp;gt;" style="html=1;verticalAlign=bottom;labelBackgroundColor=none;endArrow=open;endFill=0;dashed=1;rounded=0;exitX=1.014;exitY=0.371;exitDx=0;exitDy=0;exitPerimeter=0;" edge="1" parent="WIyWlLk6GJQsqaUBKTNV-1" source="4BFlr_aGlpS0vmlmlXQm-58">
          <mxGeometry width="160" relative="1" as="geometry">
            <mxPoint x="330" y="400" as="sourcePoint" />
            <mxPoint x="880" y="616" as="targetPoint" />
          </mxGeometry>
        </mxCell>
        <mxCell id="4BFlr_aGlpS0vmlmlXQm-90" value="" style="endArrow=none;html=1;rounded=0;" edge="1" parent="WIyWlLk6GJQsqaUBKTNV-1">
          <mxGeometry width="50" height="50" relative="1" as="geometry">
            <mxPoint x="790" y="650" as="sourcePoint" />
            <mxPoint x="790" y="620" as="targetPoint" />
            <Array as="points">
              <mxPoint x="790" y="640" />
            </Array>
          </mxGeometry>
        </mxCell>
      </root>
    </mxGraphModel>
  </diagram>
</mxfile>
